<svg xmlns="http://www.w3.org/2000/svg" viewBox="0 0 420 422.16"><defs><style>.cls-1,.cls-2{fill:#009fe8;}.cls-1{opacity:0.26;}.cls-3{fill:#fff;}.cls-4{fill:#fcee21;}</style></defs><title>大会出場_svg</title><g id="レイヤー_2" data-name="レイヤー 2"><g id="レイヤー_1-2" data-name="レイヤー 1"><circle class="cls-1" cx="210" cy="210" r="210"/><polygon class="cls-2" points="328.64 178.24 368.69 355.02 331.03 415.87 301.23 222.52 328.64 178.24"/><polygon class="cls-2" points="301.23 222.52 331.03 415.87 89.13 416.7 114.54 222.48 301.23 222.52"/><path class="cls-2" d="M328.65,178.24l-27.42,44.28-186.69,0,27.4-44.29h3.19v5c0,12.36,33.73,22.39,75.37,22.39s75.37-10,75.37-22.39v-5Z"/><path class="cls-3" d="M295.87,178.24v5c0,12.36-33.75,22.39-75.37,22.39s-75.37-10-75.37-22.39v-5Z"/><path class="cls-3" d="M295.87,68V178.24l-150.74-.05V68c0,12.37,33.73,22.39,75.37,22.39S295.87,80.32,295.87,68ZM237.7,140.46a8.87,8.87,0,1,0-8.87,8.87A8.87,8.87,0,0,0,237.7,140.46Zm-48.88-.83a8.88,8.88,0,1,0-8.89,8.89A8.88,8.88,0,0,0,188.82,139.63Z"/><ellipse cx="220.5" cy="67.95" rx="75.37" ry="22.39"/><circle cx="228.83" cy="140.46" r="8.87"/><path d="M179.93,130.76a8.88,8.88,0,1,1-8.87,8.87A8.88,8.88,0,0,1,179.93,130.76Z"/><rect x="295.87" y="172.77" width="32.77" height="10.92"/><path d="M119.19,225.35l-9.29-5.75,27.39-44.28a5.48,5.48,0,0,1,4.65-2.59h3.19v7.44l1.45.9-1.45,2.35v.23H145Z"/><path d="M89.13,422.16A5.46,5.46,0,0,1,83.72,416l25.41-194.22a5.45,5.45,0,0,1,5.41-4.75h0l186.68,0V228l-181.89,0-24,183.27,235.65-.8,0,10.92-241.9.83Z"/><path d="M331,421.33a5.76,5.76,0,0,1-1.09-.11,5.47,5.47,0,0,1-4.31-4.52l-29.8-193.35a5.5,5.5,0,0,1,.75-3.71L324,175.36A5.46,5.46,0,0,1,334,177l40,176.79a5.47,5.47,0,0,1-.68,4.08l-37.67,60.84A5.47,5.47,0,0,1,331,421.33Zm-24.1-197.65,27.24,176.73,28.7-46.36-36.6-161.6Z"/><path d="M295.87,73.41A5.46,5.46,0,0,1,290.41,68c0-6-26.54-16.93-69.91-16.93S150.59,62,150.59,68a5.46,5.46,0,0,1-10.92,0c0-19.14,41.9-27.85,80.83-27.85S301.34,48.81,301.34,68A5.46,5.46,0,0,1,295.87,73.41Z"/><path d="M220.5,211.05c-38.93,0-80.83-8.72-80.83-27.86V68h10.92c0,6,26.54,16.93,69.91,16.93s69.91-11,69.91-16.93h10.93V183.19C301.34,202.33,259.43,211.05,220.5,211.05ZM150.59,82.9V183.19c0,6,26.54,16.94,69.91,16.94s69.91-11,69.91-16.94V82.9c-15,8.79-43.15,12.91-69.91,12.91S165.59,91.69,150.59,82.9Z"/><path class="cls-4" d="M63.53,303.56a12.86,12.86,0,0,1-5.4-1.2c-24.84-11.57-30.57-48.25-31.88-63.48A12.77,12.77,0,0,1,39,225H57.93a12.71,12.71,0,0,1,12.24,9.1L84.1,280.33a12.74,12.74,0,0,1-4.18,13.61l-8.3,6.76A12.9,12.9,0,0,1,63.53,303.56ZM47.1,245C49.72,262.43,55.5,275.88,63,282l.58-.48L52.57,245Z"/><path d="M57.93,230a7.75,7.75,0,0,1,7.46,5.54l13.92,46.24a7.79,7.79,0,0,1-2.54,8.29l-8.31,6.75a7.87,7.87,0,0,1-4.93,1.74,7.73,7.73,0,0,1-3.29-.73c-22.47-10.47-27.77-45-29-59.38A7.78,7.78,0,0,1,39,230H57.93m5.16,57.74a1.89,1.89,0,0,0,1.21-.43l4-3.26a1.91,1.91,0,0,0,.63-2L56.69,241.36A1.9,1.9,0,0,0,54.86,240H43.57a1.91,1.91,0,0,0-1.9,2.13c2.2,18,8.52,37.75,20.36,45.3a1.93,1.93,0,0,0,1.06.31M57.93,220H39a17.78,17.78,0,0,0-17.72,19.31A134.61,134.61,0,0,0,28.38,273C34.51,289.81,43.81,301.21,56,306.9a17.84,17.84,0,0,0,18.75-2.32l8.3-6.76a17.72,17.72,0,0,0,5.82-18.92L75,232.66a17.68,17.68,0,0,0-17-12.66Z"/><path class="cls-4" d="M156.31,303.56a12.87,12.87,0,0,1-8.08-2.86L139.92,294a12.76,12.76,0,0,1-4.18-13.62l13.93-46.23a12.71,12.71,0,0,1,12.24-9.1H180.5a13.6,13.6,0,0,1,3.83.48,12.83,12.83,0,0,1,9.26,13.4c-1.31,15.23-7,51.91-31.88,63.48A12.86,12.86,0,0,1,156.31,303.56Zm.56-21.61c7.39-6.07,13.26-19.72,15.87-36.95h-5.47l-11,36.47Z"/><path d="M180.5,230a8.86,8.86,0,0,1,2.46.29,7.77,7.77,0,0,1,5.65,8.16c-1.24,14.37-6.54,48.91-29,59.38a7.73,7.73,0,0,1-3.29.73,7.87,7.87,0,0,1-4.93-1.74l-8.31-6.75a7.77,7.77,0,0,1-2.54-8.29l13.93-46.24a7.73,7.73,0,0,1,7.45-5.54H180.5m-23.77,57.85a1.44,1.44,0,0,0,.75-.21c12.16-7.45,18.58-27.65,20.75-46a1.49,1.49,0,0,0-1.49-1.66H164.67a1.49,1.49,0,0,0-1.43,1.06l-12.42,41.22a1.5,1.5,0,0,0,.49,1.59l4.47,3.63a1.47,1.47,0,0,0,.95.35M180.5,220H161.91a17.68,17.68,0,0,0-17,12.66L131,278.89a17.72,17.72,0,0,0,5.81,18.93l8.3,6.76a17.84,17.84,0,0,0,18.75,2.32c12.21-5.69,21.51-17.09,27.64-33.87a135.13,135.13,0,0,0,7.12-33.72,17.84,17.84,0,0,0-12.87-18.63,18.51,18.51,0,0,0-5.21-.68Z"/><path class="cls-4" d="M76.36,379A9.37,9.37,0,0,1,67,369.64V355.36A9.37,9.37,0,0,1,76.36,346H89.27l10-37.53C73.57,301.42,55,270.85,55,235.5a98.94,98.94,0,0,1,1.56-17.59A10.78,10.78,0,0,1,67.15,209h86.7a10.78,10.78,0,0,1,10.59,8.91A98.94,98.94,0,0,1,166,235.5c0,35.84-18.88,66.48-45,73.15L130.93,346h12.71a9.37,9.37,0,0,1,9.36,9.36v14.28a9.37,9.37,0,0,1-9.36,9.36Z"/><path d="M153.85,214a5.79,5.79,0,0,1,5.67,4.79A94.69,94.69,0,0,1,161,235.5c0,34.27-18,62.72-41.73,68.44A4.37,4.37,0,0,0,116,309.3l10.2,38.46a4.37,4.37,0,0,0,4.22,3.24h13.2a4.36,4.36,0,0,1,4.36,4.36v14.28a4.36,4.36,0,0,1-4.36,4.36H76.36A4.36,4.36,0,0,1,72,369.64V355.36A4.36,4.36,0,0,1,76.36,351h13.4A4.37,4.37,0,0,0,94,347.76l10.25-38.63a4.39,4.39,0,0,0-3.17-5.35C77.68,297.7,60,269.44,60,235.5a94.69,94.69,0,0,1,1.48-16.71A5.79,5.79,0,0,1,67.15,214h86.7m0-10H67.15a15.77,15.77,0,0,0-15.51,13A104.27,104.27,0,0,0,50,235.5c0,18.09,4.69,35.78,13.22,49.79,7.7,12.65,18.2,21.87,30,26.44L85.42,341H76.36A14.37,14.37,0,0,0,62,355.36v14.28A14.37,14.37,0,0,0,76.36,384h67.28A14.37,14.37,0,0,0,158,369.64V355.36A14.37,14.37,0,0,0,143.64,341h-8.87l-7.69-29C152.84,302.47,171,271.4,171,235.5A104.27,104.27,0,0,0,169.36,217a15.77,15.77,0,0,0-15.51-13Z"/><ellipse class="cls-4" cx="41.74" cy="181.29" rx="22.12" ry="31.61"/><ellipse class="cls-4" cx="187.74" cy="334.29" rx="22.12" ry="31.61"/></g></g></svg>