<svg xmlns="http://www.w3.org/2000/svg" viewBox="0 0 1201.92 205.74"><defs><style>.cls-1{fill:#fff;}</style></defs><title>logotype_white_svg</title><g id="レイヤー_2" data-name="レイヤー 2"><g id="レイヤー_1-2" data-name="レイヤー 1"><path class="cls-1" d="M131.78,0C122,0,115.39,7.51,115.39,14.53l0,128.19c-2.9,25.84-27.19,28.63-37.51,28.63H68.63c-23.08,0-36.31-12-36.31-32.84V113.2c0-20.71,13.57-33.07,36.31-33.07H80.09c6.91,0,14.07-5.95,14.07-15.92,0-8.9-6.32-16.15-14.07-16.15H66.77C24.34,48.06,0,71.13,0,111.34v29c0,38.74,25.59,62.82,66.77,62.82H77.46c14.46,0,27.35-3.57,37.93-10.41v.75c0,5.9,4.3,12.21,16.39,12.21,8.75,0,16.16-6.65,16.16-14.53V14.53C147.94,7.51,141.44,0,131.78,0Z"/><path class="cls-1" d="M254,48.29H240.48c-42.43,0-66.77,22.47-66.77,61.66v32.27c0,40,23.09,61.2,66.77,61.2H254c42.13,0,66.3-22.31,66.3-61.2V110C320.25,71.34,295.46,48.29,254,48.29ZM206,111.81c0-21.75,11.27-31.44,36.55-31.44h9.28c24.46,0,35.86,10,35.86,31.44v28.56c0,21.58-11.06,31.21-35.86,31.21h-9.28c-24.95,0-36.55-9.92-36.55-31.21Z"/><path class="cls-1" d="M436.24,48.06H378.33V25.9c0-6.9-6.5-14.29-16.16-14.29C352.2,11.61,346,19,346,25.9v130c0,30.93,17.4,47.27,50.29,47.27H424.4c7,0,14.53-6.4,14.53-15.93,0-8.72-6.79-16.38-14.53-16.38H400c-16.43,0-21.69-4.65-21.69-19.14V80.6h57.91c6.9,0,14.3-6.58,14.3-16.39C450.54,54.55,443.14,48.06,436.24,48.06Z"/><path class="cls-1" d="M663.47,136.52c-13.63,0-16.42,10-18.26,16.71-2.61,9.43-5.08,18.35-31.2,18.35H597.53c-24.75,0-36.78-10.82-36.78-33.07V112.74c0-26.95,20-32.61,36.78-32.61h26.24c6.9,0,14.29-6.4,14.29-15.92,0-10-7.42-16.15-14.29-16.15H596.83c-42.68,0-68.16,23.66-68.16,63.28V139.9c0,41.4,23.57,63.29,68.16,63.29h17.65c42.13,0,60.93-14.92,64.87-51.51l0-1.33C679.39,143.7,673.29,136.52,663.47,136.52Z"/><path class="cls-1" d="M821.37,45.51c-10,0-16.16,7.42-16.16,14.29v79.64c0,21.32-12.53,32.14-37.25,32.14h-6.74c-24,0-34.21-8.92-34.21-29.82v-82c0-6.87-6.18-14.29-16.16-14.29s-16.16,7.26-16.16,14.29v83.35c0,39.84,21.53,60,64,60h8.12c14.66,0,27.71-3.55,38.41-10.34v.68c0,5.9,4.24,12.21,16.16,12.21,10.11,0,16.16-7.27,16.16-14.3V59.8C837.53,52.93,831.35,45.51,821.37,45.51Z"/><path class="cls-1" d="M954.94,48.06H941.16c-6.9,0-14.31,6.49-14.31,16.15s7.41,15.92,14.31,15.92h11.69c23.32,0,37.24,12.45,37.24,33.3v25.31c0,20.25-14.27,32.84-37.24,32.84h-9.28c-7.56,0-32.44-1.81-37.72-24.89V14.53c0-6.91-6.49-14.3-16.16-14.3-9.82,0-15.92,7.42-15.92,14.3V191.44c0,7,6,14.3,15.92,14.3,9.51,0,16.16-5.21,16.16-12.67v-.45c10.77,6.88,23.93,10.57,38.18,10.57h10.91c41.32,0,67-24.08,67-62.82V111.58C1021.94,71.21,997.52,48.06,954.94,48.06Z"/><path class="cls-1" d="M1132.36,48.06H1117c-42.75,0-69.32,24.34-69.32,63.52V139c0,41.41,24.62,64.22,69.32,64.22h30.18c6.8,0,13.84-5.79,13.84-15.46,0-8.4-6.21-15.22-13.84-15.22h-29.48c-26.77,0-38.18-9.83-38.18-32.84v-27.4c0-22.25,12.49-33.06,38.18-33.06h14.62c26.29,0,37,9.11,37,31.44l.61.56h-53c-7,0-12.22,6.05-12.22,14.07s5.26,13.83,12.22,13.83H1179a22.81,22.81,0,0,0,22.89-22.66V113C1201.92,69.9,1178.51,48.06,1132.36,48.06Z"/></g></g></svg>